<?xml version="1.0" encoding="UTF-8" standalone="no"?>
<!DOCTYPE svg PUBLIC "-//W3C//DTD SVG 1.1//EN" "http://www.w3.org/Graphics/SVG/1.1/DTD/svg11.dtd">
<svg width="100%" height="100%" viewBox="0 0 95 95" version="1.1" xmlns="http://www.w3.org/2000/svg" xmlns:xlink="http://www.w3.org/1999/xlink" xml:space="preserve" style="fill-rule:evenodd;clip-rule:evenodd;stroke-linejoin:round;stroke-miterlimit:2;">
    <g transform="matrix(1,0,0,1,-686.766,-125.442)">
        <g transform="matrix(0.889669,0,0,1.87268,-86.5674,1707.97)">
            <g transform="matrix(1.12401,0,0,0.533994,96.9104,-912.044)">
                <path d="M720.198,165.122L720.197,168.297L721.785,168.297L721.785,166.709C721.785,165.833 721.074,165.122 720.198,165.122ZM725.486,168.297L738.186,168.297C738.186,167.421 737.475,166.709 736.599,166.709L727.074,166.709C726.198,166.709 725.486,167.421 725.486,168.297ZM747.487,160.834C747.877,162.072 748.097,163.383 748.12,164.741C748.122,164.822 748.122,168.216 748.122,168.297L742.949,168.297C742.949,167.421 743.66,166.709 744.536,166.709L746.535,166.709C746.534,165.792 746.534,164.811 746.533,164.768C746.521,164.053 746.447,163.352 746.317,162.672C746.158,161.842 746.678,161.038 747.487,160.834ZM729.683,151.818C729.995,152.593 729.651,153.487 728.885,153.847C728.513,154.022 728.15,154.215 727.799,154.425L727.649,154.516C725.646,155.753 724.023,157.541 722.996,159.668C722.629,160.43 721.732,160.765 720.96,160.445C722.367,156.396 725.603,153.194 729.683,151.818ZM734.365,151.09C738.836,151.153 742.801,153.313 745.312,156.626C744.676,157.168 743.719,157.125 743.135,156.513C742.811,156.174 742.468,155.853 742.107,155.552C740.339,154.075 738.151,153.081 735.747,152.775C734.908,152.668 734.306,151.923 734.365,151.09Z" style="fill:white;fill-opacity:0.47;"/>
            </g>
        </g>
        <g transform="matrix(0.889669,0,0,1.87268,-86.5674,1707.97)">
            <g transform="matrix(1.27276,0,0,0.604661,358.65,-988.226)">
                <path d="M443.019,236.773C466.12,236.773 484.874,255.528 484.874,278.628C484.874,301.728 466.12,320.483 443.019,320.483C419.919,320.483 401.164,301.728 401.164,278.628C401.164,255.528 419.919,236.773 443.019,236.773ZM443.019,242.072C463.195,242.072 479.575,258.452 479.575,278.628C479.575,298.804 463.195,315.184 443.019,315.184C422.843,315.184 406.463,298.804 406.463,278.628C406.463,258.452 422.843,242.072 443.019,242.072Z" style="fill:white;"/>
            </g>
        </g>
        <g transform="matrix(0.889669,0,0,1.87268,-86.5674,1707.97)">
            <g transform="matrix(1.75947,0,0,0.835884,-369.691,-962.036)">
                <path d="M730.158,181.818C730.158,182.14 730.251,182.454 730.427,182.723L731.3,184.036C731.567,184.439 732.174,184.767 732.657,184.767L735.797,184.767C736.277,184.767 736.884,184.439 737.152,184.036L738.022,182.723C738.171,182.496 738.294,182.09 738.294,181.818L738.3,179.813L730.153,179.813L730.158,181.818ZM725.267,167.758L715.152,167.758C714.448,167.758 713.876,167.186 713.876,166.481C713.876,165.777 714.448,165.205 715.152,165.205L753.7,165.205C754.404,165.205 754.976,165.777 754.976,166.481C754.976,167.186 754.404,167.758 753.7,167.758L743.186,167.758C743.135,169.986 742.31,171.97 740.971,173.461C740.129,174.425 738.815,176.439 738.312,178.138C738.311,178.152 738.307,178.165 738.306,178.178L730.148,178.178C730.147,178.165 730.143,178.151 730.142,178.138C729.639,176.439 728.325,174.425 727.483,173.461C726.146,171.929 725.319,169.942 725.267,167.758ZM740.741,167.758C740.691,169.268 740.126,170.749 739.136,171.886C738.338,172.799 737.351,174.254 736.638,175.767L731.82,175.767C731.107,174.254 730.12,172.799 729.323,171.886C728.329,170.749 727.763,169.268 727.713,167.758L740.741,167.758Z" style="fill:white;"/>
            </g>
        </g>
    </g>
</svg>
