<?xml version="1.0" standalone="no"?>
<!DOCTYPE svg PUBLIC "-//W3C//DTD SVG 20010904//EN"
 "http://www.w3.org/TR/2001/REC-SVG-20010904/DTD/svg10.dtd">
<svg version="1.0" xmlns="http://www.w3.org/2000/svg"
 width="501.000000pt" height="501.000000pt" viewBox="0 0 501.000000 501.000000"
 preserveAspectRatio="xMidYMid meet">
<metadata>
Created by potrace 1.14, written by Peter Selinger 2001-2017
</metadata>
<g transform="translate(0.000000,501.000000) scale(0.100000,-0.100000)"
fill="#000000" stroke="none">
<path d="M2285 4380 c-119 -20 -145 -28 -167 -47 -16 -14 -16 -25 2 -68 5 -11
43 -105 86 -210 75 -186 93 -216 124 -210 95 17 157 19 355 12 49 -2 45 -8
149 264 64 168 73 197 62 214 -34 53 -408 81 -611 45z"/>
<path d="M1679 4143 c-151 -107 -309 -275 -398 -420 -54 -87 -57 -85 194 -190
121 -51 227 -93 236 -93 9 0 42 33 73 74 51 67 101 116 194 191 17 15 32 35
32 45 0 16 -168 406 -188 436 -21 32 -49 24 -143 -43z"/>
<path d="M3193 4192 c-6 -4 -27 -45 -46 -92 -20 -47 -44 -103 -53 -125 -10
-22 -18 -42 -19 -45 -1 -3 -9 -23 -19 -45 -33 -76 -56 -136 -56 -150 0 -7 17
-26 39 -42 80 -59 143 -118 192 -180 28 -35 58 -67 68 -72 14 -8 118 32 256
99 11 5 60 28 110 49 108 48 117 62 80 122 -97 155 -255 317 -415 425 -93 63
-113 71 -137 56z"/>
<path d="M1102 3323 c-51 -100 -64 -441 -23 -643 31 -158 20 -154 241 -64 102
42 204 83 228 92 51 20 57 37 44 124 -10 65 -9 215 2 278 4 22 2 41 -6 51 -14
18 -427 179 -458 179 -11 0 -23 -8 -28 -17z"/>
<path d="M3635 3252 c-115 -47 -213 -90 -218 -96 -4 -6 -4 -45 0 -86 9 -91 9
-217 -1 -286 -5 -38 -3 -54 7 -62 8 -7 114 -50 236 -96 208 -79 222 -83 240
-68 46 41 74 386 46 577 -10 71 -37 180 -47 193 -18 21 -47 13 -263 -76z"/>
<path d="M1650 2437 c-14 -6 -72 -33 -129 -59 -57 -26 -105 -48 -108 -48 -3 0
-40 -16 -84 -37 -49 -22 -81 -43 -85 -56 -18 -58 259 -367 435 -485 139 -93
126 -102 239 166 55 132 91 230 87 241 -3 10 -27 33 -53 51 -55 39 -154 136
-201 198 -34 44 -55 50 -101 29z"/>
<path d="M3284 2442 c-6 -4 -38 -41 -71 -82 -33 -41 -84 -95 -113 -120 -30
-25 -66 -57 -82 -72 l-28 -26 19 -44 c126 -287 183 -404 201 -412 56 -25 371
254 488 433 61 92 69 114 54 137 -6 11 -433 194 -450 194 -4 0 -12 -4 -18 -8z"/>
<path d="M2289 2028 c-18 -14 -179 -427 -179 -458 0 -23 18 -37 55 -43 17 -3
37 -7 45 -10 38 -14 138 -21 290 -21 132 0 186 5 270 22 125 27 139 37 123 89
-18 64 -163 407 -177 422 -11 11 -28 11 -83 4 -72 -11 -261 -10 -303 1 -15 4
-32 2 -41 -6z"/>
<path d="M2078 1292 c-120 -2 -129 -4 -143 -25 -16 -26 -14 -99 4 -121 17 -21
1119 -22 1147 -1 14 9 19 26 19 64 0 86 28 81 -466 84 -239 1 -491 1 -561 -1z"/>
<path d="M1988 1032 c-46 -4 -60 -21 -63 -78 -5 -86 -45 -81 589 -81 405 0
561 3 572 12 24 17 27 99 5 126 -17 22 -19 22 -542 23 -288 0 -541 0 -561 -2z"/>
<path d="M2100 760 c-24 -24 -27 -86 -4 -118 l15 -22 409 0 c402 0 409 0 423
21 17 24 15 102 -3 124 -11 13 -69 15 -416 15 -391 0 -405 -1 -424 -20z"/>
</g>
</svg>
